<?xml version="1.0" encoding="UTF-8"?>
<svg width="300px" height="1080px" viewBox="0 0 300 1080" version="1.1" xmlns="http://www.w3.org/2000/svg" xmlns:xlink="http://www.w3.org/1999/xlink">
    <title>侧栏背景</title>
    <defs>
        <linearGradient x1="58.8279009%" y1="100%" x2="58.8278996%" y2="0%" id="linearGradient-1">
            <stop stop-color="#2F54E3" stop-opacity="0.992679196" offset="0%"></stop>
            <stop stop-color="#1D86E1" offset="100%"></stop>
        </linearGradient>
        <rect id="path-2" x="0" y="0" width="300" height="1080"></rect>
    </defs>
    <g id="页面-1" stroke="none" stroke-width="1" fill="none" fill-rule="evenodd">
        <g id="侧栏背景">
            <mask id="mask-3" fill="white">
                <use xlink:href="#path-2"></use>
            </mask>
            <use fill="url(#linearGradient-1)" xlink:href="#path-2"></use>
            <g id="编组" opacity="0.251771439" mask="url(#mask-3)">
                <g transform="translate(158.500000, 932.000000) scale(-1, 1) translate(-158.500000, -932.000000) translate(-311.000000, 444.000000)">
                    <g transform="translate(469.500000, 488.000000) rotate(42.000000) translate(-469.500000, -488.000000) translate(258.000000, 22.000000)">
                        <path d="M9.97722041,5.39437223 C12.0397627,53.1295187 48.5279239,93.8682426 76.2122486,129.984551 C100.40432,161.545525 131.376313,197.165147 137.783308,237.791118 C139.935506,251.439042 138.815295,265.561292 140.331323,279.331485 C141.454872,289.538289 143.232712,299.650417 145.545144,309.655026 C149.693119,327.595669 155.527848,345.099095 159.548971,363.071138 C164.152852,383.650307 167.962236,406.848972 165.514368,427.921021 C161.301059,464.199561 133.455069,497.535569 111.916882,525.269586 C83.5711133,561.769351 52.2996342,596.289033 26.8066116,634.917317 C8.22227114,663.077133 -7.89703326,694.116682 4.55595321,727.952706 C17.9975293,764.474832 48.4888191,793.96628 73.9627661,822.33067 C100.539756,851.92393 131.885153,884.209952 138.328392,925.018611" id="Stroke-3" stroke="#0067A5"></path>
                        <path d="M15.0506929,5.39066136 C14.5933569,53.3327604 50.3213581,94.5039436 77.9269962,130.521771 C102.151972,162.128417 133.171178,197.205681 140.467093,237.649914 C142.902562,251.151782 141.857223,265.234069 143.365144,278.892936 C144.502046,289.191084 146.265102,299.398839 148.508385,309.512871 C152.581489,327.882643 158.220694,345.867531 162.168376,364.267276 C166.570533,384.782218 170.831054,408.309628 167.857178,429.238951 C162.739688,465.244409 136.10881,498.307811 114.911598,526.379613 C87.6068767,562.542069 57.5657696,596.889528 32.9726354,635.021602 C14.5800041,663.53966 -1.70048861,694.240948 11.0581833,728.145481 C24.642349,764.243711 53.6529003,793.797483 78.4205756,822.488715 C104.363304,852.541553 134.034346,884.809495 141.272558,925.15049" id="Stroke-5" stroke="#0067A5"></path>
                        <path d="M23.0739585,5.17533558 C19.5545222,52.7886893 53.3473103,94.1202013 80.4040498,130.022897 C104.259915,161.679497 134.641043,195.94132 142.787727,235.905518 C145.673379,250.06012 144.556506,264.965935 146.1269,279.330343 C147.264279,289.733157 149.004921,300.058899 151.134705,310.302811 C154.947428,328.642135 160.094961,346.676977 163.830904,365.033428 C168.151036,386.259621 172.777331,410.546809 169.470586,432.151225 C164.081748,467.362652 139.795253,499.688636 119.540849,527.85321 C94.0406733,563.312504 65.9834219,597.120459 42.9377905,634.283423 C32.9393486,650.406215 23.3977657,667.489551 18.4133283,685.911656 C14.3135188,701.06296 16.2415786,714.928303 21.7205493,729.471119 C49.0104873,801.905931 130.082467,847.101032 144.347152,925.284842" id="Stroke-7" stroke="#0067A5"></path>
                        <path d="M33.484432,4.7890242 C26.5566744,52.1335775 58.0608751,93.8033499 84.4871682,129.978176 C107.617686,161.641437 137.282051,195.49887 145.240364,235.021569 C148.10694,249.258476 147.00962,264.266578 148.483682,278.716146 C149.577187,289.439617 151.237713,300.096483 153.240644,310.685792 C156.870718,329.881947 161.714474,348.826905 165.266338,368.03876 C169.285077,389.774008 173.854145,414.39232 170.566476,436.438235 C165.434203,470.858484 143.507829,502.65448 124.530532,530.905165 C101.174447,565.674141 75.3838458,598.971138 54.4050487,635.27965 C45.1348153,651.324418 36.4273103,668.226017 31.8582426,686.28084 C28.0378897,701.37553 29.908246,715.219464 35.0047522,729.779407 C60.026609,801.256528 134.449334,848.961702 147.522752,925.420432" id="Stroke-9" stroke="#0067A5"></path>
                        <path d="M45.7201005,4.27235651 C35.2605074,50.8509476 63.3835694,92.5064474 88.8928062,129.038564 C111.39097,161.257504 141.029583,195.486976 147.845749,235.377433 C150.166288,248.954946 149.254477,263.112877 150.495341,276.844534 C151.499191,287.950986 153.003774,299.005106 154.840271,310.003562 C158.303911,330.740681 162.928775,351.264663 166.340434,372.010345 C170.011044,394.336003 174.204324,419.088001 171.284336,441.675799 C166.84832,475.984722 146.57961,508.129445 128.776413,536.978151 C108.583051,569.699962 86.3838964,601.309939 68.3651455,635.323419 C52.1008671,666.027086 39.9311523,696.777377 50.9472741,731.182878 C73.3100012,801.028167 139.788719,851.377575 150.770028,925.557449" id="Stroke-11" stroke="#0067A5"></path>
                        <path d="M59.2205723,3.66605697 C31.5052498,94.3445664 139.206677,152.558171 150.400201,235.533765 C153.783248,260.610226 152.853315,286.173859 156.571137,311.379249 C159.777735,333.121159 164.005827,354.699884 167.121339,376.45559 C170.425699,399.531987 174.094878,424.34726 171.637472,447.648687 C168.273501,479.556485 152.2181,509.751572 137.130782,537.512707 C118.822083,571.200297 98.1551709,603.726098 82.0878474,638.588797 C68.4674381,668.142569 59.3231033,697.626406 67.7101393,729.919564 C85.802331,799.580736 145.516864,852.853171 154.063181,925.695227" id="Stroke-13" stroke="#0067A5"></path>
                        <path d="M73.428508,3.01099275 C38.9881055,91.9672766 141.78569,151.406897 152.476573,232.936202 C154.396049,247.572741 153.40889,262.728326 154.486658,277.474288 C155.351733,289.319109 156.646962,301.1292 158.158699,312.908367 C161.084886,335.708351 164.899516,358.385114 167.721741,381.198895 C170.669389,405.031262 173.664248,429.980222 171.890223,454.006697 C169.557762,485.600498 155.81813,515.898348 142.486239,544.18852 C115.487202,601.47964 71.8538225,665.182958 86.0951405,731.355434 C100.741337,799.413318 151.570485,855.292404 157.377555,925.833719" id="Stroke-15" stroke="#0067A5"></path>
                        <path d="M87.7859483,2.34845921 C67.0017216,46.8822642 83.5125514,88.7195016 106.581073,128.661815 C124.834453,160.26751 150.162472,193.034042 154.57369,230.333072 C157.77218,257.376296 156.480767,285.08938 159.451305,312.300545 C162.138094,336.910769 165.67279,361.421084 168.274693,386.040823 C170.951468,411.365627 173.347832,437.37837 171.965333,462.856843 C170.369187,492.262656 159.982081,520.840659 149.408035,548.044212 C126.807817,606.184551 94.2744917,665.787355 104.136544,730.13056 C114.515066,797.844 157.466495,856.666568 160.690261,925.971877" id="Stroke-17" stroke="#0067A5"></path>
                        <path d="M101.737223,1.71937111 C78.4512396,44.6598795 89.7630321,86.028976 111.515819,126.905192 C128.661387,159.124133 153.166774,191.870207 156.834999,229.241552 C159.535141,256.746256 158.358181,284.759541 160.918595,312.39698 C163.352633,338.677572 166.587367,364.877286 168.932227,391.165966 C171.236552,417.003157 172.768317,443.053009 172.331964,469.002477 C171.846492,497.903992 163.902008,526.384466 155.487313,553.833983 C137.414674,612.786908 115.317096,669.773546 122.270129,732.57436 C129.576059,798.56938 163.087483,859.039006 163.980695,926.109703" id="Stroke-19" stroke="#0067A5"></path>
                        <path d="M114.728711,1.16488106 C101.923305,22.1156131 94.7461343,44.3936958 97.5769437,69.1366544 C99.9828457,90.1644584 108.455722,110.003356 117.86616,128.764673 C133.834768,160.601583 156.717303,192.839078 159.283917,229.392128 C161.25585,257.47392 160.427018,285.749345 162.661717,313.898694 C164.765272,340.392899 167.52884,366.830014 169.573261,393.329453 C171.605759,419.674747 172.378318,445.999584 172.853299,472.407203 C173.353555,500.190223 168.422529,527.64307 162.497191,554.686294 C155.933299,584.644932 147.866732,614.301943 142.765934,644.56649 C137.951745,673.128793 137.071886,702.457534 138.801084,731.353816 C142.739705,797.182798 168.127812,859.882753 167.229831,926.246482" id="Stroke-21" stroke="#0067A5"></path>
                        <path d="M126.206652,0.726284431 C112.414563,21.2526448 103.372282,43.4660251 104.72283,68.5405836 C105.831596,89.1235586 113.16137,108.776437 121.78542,127.296547 C136.510779,158.919369 158.547315,190.442282 161.483517,226.107101 C163.871297,255.11233 162.53744,284.634227 164.518911,313.761249 C166.421696,341.735998 168.919637,369.666977 170.764718,397.646482 C174.337089,451.834742 175.504512,505.679983 167.815641,559.548061 C163.696279,588.403904 158.528239,617.128914 155.578685,646.140804 C152.719262,674.267318 152.928139,702.898129 153.572892,731.131211 C155.067937,796.609088 172.435735,860.688726 170.420405,926.383071" id="Stroke-23" stroke="#0067A5"></path>
                        <path d="M135.621001,0.445209597 C121.020109,20.6613791 110.41745,42.7743755 110.474919,68.1467553 C110.520458,88.3167767 116.883579,107.795053 124.895781,126.096793 C139.293042,158.984166 162.032034,191.249255 164.151326,228.102504 C165.782284,256.463564 165.022124,285.007313 166.706494,313.422608 C168.442367,342.721377 170.725709,371.985416 172.398633,401.287991 C175.484101,455.33067 176.673938,509.560319 172.596542,563.56589 C168.3055,620.394578 165.654001,676.438749 165.792776,733.417299 C165.950149,797.90228 175.764035,861.971927 173.537443,926.517804" id="Stroke-25" stroke="#0067A5"></path>
                        <path d="M142.421334,0.362523737 C126.431266,21.40127 114.489027,44.4686269 114.397877,71.4128943 C114.334992,90.3007616 119.851637,108.553023 127.164721,125.813815 C141.066494,158.626495 163.668619,190.188896 166.702583,226.593035 C169.121361,255.617295 167.830901,285.281917 169.399387,314.427494 C170.956428,343.363263 172.944575,372.274293 174.458696,401.212917 C177.30715,455.663792 177.870355,510.284986 176.581803,564.790573 C175.262253,620.597344 175.084374,676.310391 174.708109,732.111453 C174.270802,796.971326 177.959534,861.78743 176.567973,926.65111" id="Stroke-27" stroke="#0067A5"></path>
                        <path d="M146.333774,0.529750893 C130.337507,21.6969505 118.124395,44.8899061 117.677551,71.9345574 C117.36805,90.6982532 122.57281,108.888667 129.703722,126.099029 C143.34893,159.031123 165.641554,190.275246 169.457615,226.510492 C172.493963,255.347305 171.029916,285.224113 172.468211,314.232673 C173.920814,343.537151 175.703422,372.824026 177.120735,402.130406 C179.753635,456.58699 179.097437,510.984105 179.36211,565.483031 C179.946775,685.915129 179.570987,806.350082 179.570987,926.784083" id="Stroke-29" stroke="#0067A5"></path>
                        <path d="M150.376118,1.31031873 C136.238762,21.933257 125.477776,44.2760421 124.430052,69.6260615 C123.619342,89.241355 128.522708,108.461298 135.41756,126.679781 C147.747033,159.259342 167.220293,190.213731 171.100734,225.428963 C174.325453,254.690623 173.010672,285.052224 174.142805,314.487058 C175.270169,343.802954 176.552045,373.112665 177.664149,402.429036 C179.722876,456.721961 178.722364,510.95732 180.421994,565.243585 C184.195135,685.766076 182.712966,806.337094 182.712966,926.919054" id="Stroke-31" stroke="#0067A5"></path>
                        <path d="M155.346202,2.75684553 C130.240889,42.8266607 126.028534,83.2390181 140.906498,127.716208 C151.634579,159.78719 168.171161,190.513693 171.543716,224.621372 C174.443674,253.949162 173.182304,284.172794 173.820858,313.635222 C174.484209,344.233748 175.150423,374.832274 175.812821,405.430324 C176.974044,459.036262 175.816636,512.793489 179.642711,566.2881 C181.576017,593.317528 184.106386,620.306516 185.403523,647.378285 C186.76647,675.800717 185.854659,704.208876 185.854659,732.647008 L185.854659,927.054406" id="Stroke-33" stroke="#6EE0FF"></path>
                        <path d="M161.06376,4.73602532 C138.80404,43.3590759 133.564468,82.4145858 145.044602,125.37127 C153.654345,157.589259 167.771672,188.469906 170.707397,222.013818 C173.354604,252.266947 171.898664,283.31839 171.932046,313.665718 C171.966382,344.69813 171.871958,375.730067 171.924416,406.76248 C172.016932,461.151982 170.760331,515.684687 177.570297,569.738308 C180.841752,595.704903 184.920101,621.579678 187.257331,647.656172 C189.815837,676.207533 188.996543,704.722737 188.996543,733.346412 L188.996543,927.189567" id="Stroke-35" stroke="#0067A5"></path>
                        <path d="M167.349482,7.11478999 C147.246729,44.8852913 141.201692,83.0963398 149.565837,124.98924 C155.755372,155.986447 166.614597,186.028342 168.99284,217.733945 C171.326731,248.84105 169.515032,280.62991 168.852158,311.780785 C168.143501,345.093957 167.163496,378.400468 166.503959,411.714592 C165.428576,465.98135 164.170067,519.625824 174.445582,573.148029 C179.329395,598.586063 185.237089,623.842835 188.821382,649.514463 C192.677025,677.128115 192.138141,704.647092 192.138141,732.450094 L192.138141,927.324681" id="Stroke-37" stroke="#0067A5"></path>
                        <path d="M174.024489,9.7611657 C156.308562,45.8056353 148.944452,82.6370003 153.601744,122.57075 C157.282845,154.132676 165.539691,184.984302 166.931251,216.836437 C169.786382,282.19252 162.861486,348.387832 160.091718,413.666844 C157.760211,468.624872 155.946604,521.589019 170.209859,575.167838 C176.855775,600.131071 184.856055,624.756518 189.947315,650.111771 C195.491143,677.721617 195.279881,705.13688 195.279881,733.159203 L195.279881,927.460032" id="Stroke-39" stroke="#6EE0FF"></path>
                        <path d="M180.911902,12.543464 C164.975723,47.8115048 156.623023,83.9083073 157.8801,122.63079 C158.833877,152.026137 163.553165,181.159344 164.33097,210.574672 C166.1379,278.872336 157.584906,347.586284 153.185611,415.666053 C151.237045,445.822604 148.626558,476.504863 150.037671,506.739437 C151.206047,531.779266 157.87867,555.979866 166.166513,579.51584 C174.517782,603.233551 184.345021,626.468373 190.867424,650.793144 C198.259671,678.363027 198.42229,705.555638 198.42229,733.876258 L198.42229,927.595717" id="Stroke-41" stroke="#0067A5"></path>
                        <path d="M187.836083,15.3312811 C173.708741,49.7134699 164.180034,84.903963 161.964411,122.082152 C160.253335,150.79289 161.924829,179.594021 161.835651,208.328071 C161.615329,279.550189 151.913988,350.515875 145.949068,421.395451 C143.449219,451.106221 139.522043,482.12674 141.735759,511.956925 C143.590378,536.946799 151.956431,560.625023 162.05502,583.376004 C172.287137,606.425758 184.178826,628.811836 192.196273,652.782648 C201.074981,679.331565 201.563792,705.249633 201.563792,732.949872 L201.563792,927.730736" id="Stroke-43" stroke="#0067A5"></path>
                        <path d="M194.62106,17.9944033 C182.285865,51.7091108 171.545385,85.9799735 165.983436,121.516339 C161.59797,149.533905 160.283666,177.906383 159.514445,206.21844 C157.533927,279.143753 146.804892,351.373039 139.366864,423.86399 C136.258982,454.149946 130.953122,486.492582 133.969918,516.940294 C136.451645,541.985832 146.516375,565.115036 158.335576,587.06818 C170.021249,608.771553 183.498592,629.627134 192.881848,652.494675 C203.992871,679.574532 204.705342,705.890806 204.705342,734.749027 L204.705342,927.866183" id="Stroke-45" stroke="#0067A5"></path>
                        <path d="M201.093962,20.4036161 C182.281668,80.2766473 160.93519,138.610618 157.782958,201.866728 C154.031754,277.137027 142.593109,351.31024 133.713924,426.091465 C130.080512,456.691894 123.488007,490.643051 127.211074,521.481832 C130.152999,545.845139 141.251145,567.931969 154.132854,588.491632 C167.806675,610.314895 183.643185,630.920706 194.703657,654.281603 C207.006424,680.269131 207.847655,705.597266 207.847655,733.812745 L207.847655,928.001297" id="Stroke-47" stroke="#0067A5"></path>
                        <path d="M207.081629,22.4306567 C191.898933,82.3740992 160.457682,137.984384 156.715539,200.549225 C152.144087,276.973701 139.488423,352.072729 129.488073,427.920592 C125.396848,458.951102 117.898732,493.985548 122.092488,525.304364 C125.385402,549.899839 137.880832,571.551831 152.104505,591.441158 C167.312476,612.708741 184.863399,632.577611 197.064589,655.841454 C210.669737,681.782834 210.989253,707.057685 210.989253,735.630455 L210.989253,928.136268" id="Stroke-49" stroke="#0067A5"></path>
                        <path d="M212.412144,23.9475949 C201.48997,84.3515663 161.280171,135.532591 156.843202,197.294362 C154.246068,233.437312 151.363754,269.052653 146.11369,304.974378 C140.051485,346.44814 133.046471,387.780604 127.154515,429.279105 C122.691317,460.711626 114.64764,496.431156 119.057904,528.211928 C122.507238,553.064785 136.200134,574.460346 151.487268,593.77544 C167.480197,613.983046 185.81131,632.664912 198.829409,655.055748 C213.752201,680.722143 214.13085,705.818586 214.13085,734.684896 L214.13085,928.271619" id="Stroke-51" stroke="#0067A5"></path>
                        <path d="M216.915115,24.8277854 C213.753345,58.0929064 200.433853,86.3845062 185.119536,115.584794 C171.52774,141.500008 159.911216,167.84673 158.137668,197.456641 C153.367353,277.118615 138.215178,354.879481 126.653496,433.765027 C122.153101,464.475355 114.809496,498.790938 118.759563,529.918501 C121.960915,555.1453 136.548454,576.386242 152.637714,595.342617 C169.031229,614.657235 187.713809,632.385692 201.195443,653.988682 C217.073442,679.430046 217.273259,704.677303 217.273259,733.726301 L217.273259,928.406781" id="Stroke-53" stroke="#0067A5"></path>
                        <path d="M221.193138,24.9813109 C220.335693,58.8948831 206.336157,86.4471628 189.591652,115.130783 C174.647878,140.730573 161.664114,166.810397 160.770902,197.045923 C158.413643,276.830166 140.970973,355.158605 129.421214,433.952807 C124.921295,464.652668 117.750324,498.731802 121.50582,529.860792 C124.555998,555.146109 139.373397,576.391808 155.53276,595.292045 C172.101294,614.669462 190.993227,632.447398 204.5855,654.176461 C220.481144,679.588329 220.414856,704.858897 220.414856,733.861272 L220.414856,928.542703" id="Stroke-55" stroke="#6EE0FF"></path>
                        <path d="M229.957345,24.409884 C229.878182,59.1027396 213.950586,85.7753521 195.098235,113.673504 C178.336562,138.477835 163.574482,164.04004 163.420923,194.855509 C163.024152,274.216332 144.396415,353.280761 133.357403,431.625376 C129.052531,462.180608 121.741355,496.379156 125.650409,527.316418 C128.853192,552.664534 143.61241,574.234697 159.436521,593.558829 C175.789501,613.52951 194.379564,632.022027 207.824955,654.198299 C223.362932,679.826158 223.557026,704.924504 223.557026,733.996814 L223.557026,928.67777" id="Stroke-57" stroke="#0067A5"></path>
                        <path d="M243.255282,23.2047067 C243.203778,59.5974275 223.350915,85.3970334 201.444093,112.480221 C183.079598,135.185054 166.450023,159.341885 165.989349,189.63022 C164.793313,268.324988 148.599137,346.281389 138.194386,424.132647 C133.989184,455.599898 126.427642,490.889348 130.512668,522.682013 C133.780307,548.120523 148.152769,570.194032 163.46804,590.110477 C179.893984,611.469881 198.690539,631.383947 211.99191,654.96369 C226.666243,680.976909 226.698671,706.184202 226.698671,735.225589 L226.698671,928.812788" id="Stroke-59" stroke="#0067A5"></path>
                        <path d="M260.153632,21.4930904 C258.852203,91.490144 170.648835,115.357241 168.492822,184.108298 C166.02874,262.667953 152.521353,340.164776 142.974048,418.102146 C139.111252,449.636954 132.03852,484.674254 136.012908,516.469774 C139.250026,542.359773 153.333017,565.230644 168.228149,586.060535 C184.267813,608.490859 202.602264,629.614765 215.564091,654.084165 C229.620376,680.619761 229.840698,706.073495 229.840698,735.360845 L229.840698,928.948045" id="Stroke-61" stroke="#6EE0FF"></path>
                        <path d="M279.722365,19.4035359 C276.122812,92.4549233 174.181242,106.749396 170.928863,178.984867 C167.418965,256.939364 156.445286,333.916665 147.975272,411.463442 C144.540245,442.914517 138.296345,477.336193 141.981261,508.991366 C145.0467,535.328573 158.627051,558.996806 172.958024,580.781057 C188.906602,605.023524 207.244868,628.037596 219.915792,654.272992 C232.955352,681.271971 232.982534,707.275675 232.982534,736.577298 L232.982534,929.083111" id="Stroke-63" stroke="#0067A5"></path>
                        <path d="M301.033315,17.0654481 C294.213334,92.8547937 179.077694,96.6146691 173.300191,171.635198 C170.536623,207.518863 169.60526,243.449152 166.036227,279.346614 C161.923065,320.716186 157.175164,362.021056 153.240835,403.408707 C150.237392,435.004887 144.768913,469.051194 148.216816,500.792478 C151.153971,527.835227 164.340889,552.522046 178.184959,575.467135 C193.637096,601.076915 211.384975,625.569628 223.644344,652.965385 C235.992892,680.560482 236.124513,707.090369 236.124513,736.71265 L236.124513,929.218463" id="Stroke-65" stroke="#6EE0FF"></path>
                        <path d="M323.159696,14.6081366 C317.622545,55.3344909 276.452771,74.5915424 244.310016,92.9151667 C216.855552,108.566487 180.356422,127.940098 175.776386,162.807555 C173.576977,179.553582 174.694326,197.172616 173.69143,214.066127 C172.52973,233.6524 170.972213,253.214409 169.315979,272.764049 C165.847093,313.720667 161.830262,354.630187 158.546886,395.602505 C156.0251,427.074989 151.362562,460.594638 154.554853,492.168457 C157.347034,519.779255 169.937365,545.428998 183.195816,569.403616 C198.047551,596.259869 215.084389,622.125605 226.946033,650.520919 C238.633614,678.499949 239.265968,705.337648 239.265968,735.165454 L239.265968,929.353529" id="Stroke-67" stroke="#0067A5"></path>
                        <path d="M345.178062,12.1622432 C337.369969,54.8415632 287.792175,72.1979818 253.240658,88.8236439 C224.325961,102.736563 183.269209,120.642 177.868448,156.554211 C175.376229,173.128491 177.002419,191.110049 176.196,207.880816 C175.321387,226.066472 174.158733,244.237855 172.904994,262.401151 C170.019819,304.209843 166.596237,345.980475 163.874635,387.800585 C161.826876,419.260224 158.056597,452.090031 160.930326,483.589157 C163.588979,512.740442 176.33239,540.107654 189.507863,565.856354 C203.42442,593.053247 219.156014,619.503207 230.306141,648.017935 C241.766246,677.324316 242.408138,705.34997 242.408138,736.372391 L242.408138,929.489547" id="Stroke-69" stroke="#6EE0FF"></path>
                        <path d="M366.168162,9.85802899 C356.360475,53.263348 300.652758,68.662519 264.687743,83.4365507 C235.106357,95.5887079 187.421333,111.907985 180.411074,148.209361 C177.317022,164.233672 179.453005,182.378413 178.883123,198.708632 C178.214049,217.916206 177.24072,237.112361 176.192519,256.302807 C173.930637,297.699973 171.214758,339.071924 169.111203,380.477653 C167.523165,411.732718 164.42196,444.206186 167.082043,475.473145 C169.61289,505.223879 181.815033,533.429843 194.396779,560.15241 C208.138795,589.340328 223.787888,617.816996 234.613731,648.278981 C244.871123,677.14196 245.549736,704.597661 245.549736,734.843654 L245.549736,929.624518" id="Stroke-71" stroke="#0067A5"></path>
                        <path d="M385.209695,7.82775334 C373.772004,51.894369 312.562902,65.3653133 275.364178,78.6402475 C244.66878,89.5944588 192.237763,103.906059 183.077214,140.701742 C179.002202,157.068119 181.90836,176.911774 181.482022,193.732495 C180.997026,212.833975 180.269295,231.928795 179.47766,251.019333 C177.826196,290.849844 175.832325,330.666083 174.296745,370.501352 C173.053497,402.777858 170.422503,435.974947 172.959073,468.240987 C175.336838,498.486979 187.047309,527.429885 199.086834,554.966465 C212.299503,585.185816 227.330072,614.760045 237.842122,646.079813 C247.912574,676.082696 248.691333,704.76584 248.691333,736.040411 L248.691333,929.75987" id="Stroke-73" stroke="#0067A5"></path>
                        <path d="M401.387561,6.20300949 C395.084051,28.8279161 375.28746,40.9738885 354.904296,50.1911259 C332.067065,60.5182948 307.777232,67.4219457 283.932336,74.9788053 C252.57454,84.9163326 195.34078,97.8330248 185.555507,135.451285 C181.335522,151.673984 184.45771,171.763604 184.173962,188.465862 C183.850154,207.525952 183.332254,226.583187 182.764279,245.638044 C181.579212,285.352947 180.122318,325.059287 179.033105,364.777045 C178.148477,397.046891 175.878488,430.121711 178.338278,462.359681 C180.689338,493.174199 192.108431,522.840249 203.747845,551.183706 C216.578528,582.426401 231.148422,613.092008 241.363371,645.336163 C250.974579,675.673501 251.833455,704.689672 251.833455,736.175477 L251.833455,929.894936" id="Stroke-75" stroke="#0067A5"></path>
                        <path d="M413.786183,5.11677039 C407.449767,28.0328378 386.541549,39.6835514 365.822656,48.3941119 C341.909088,58.4477229 316.59156,64.9584018 291.712293,72.1241925 C268.783022,78.7285948 245.350158,85.2668674 223.95456,96.0141262 C208.513391,103.770326 191.638219,115.124646 187.862693,133.155682 C184.591716,148.773699 187.115409,167.083527 186.940868,183.016017 C186.734375,201.863921 186.386247,220.710398 186.000921,239.554972 C185.169705,280.161436 184.123888,320.763143 183.36039,361.371035 C182.759511,393.360186 180.577746,426.178575 183.059473,458.1192 C185.5474,490.141179 197.231643,521.081295 208.887748,550.729267 C221.033142,581.622759 234.596325,612.070947 244.370152,643.834592 C253.99519,675.11392 254.975196,704.954571 254.975196,737.361434 L254.975196,930.029955" id="Stroke-77" stroke="#0067A5"></path>
                        <path d="M421.495131,4.70234201 C415.673754,28.0556263 393.920491,39.432782 372.991767,47.8179275 C348.249844,57.7307157 322.115883,63.9626034 296.433536,70.8962266 C272.835668,77.2670342 248.681748,83.5393609 226.610876,94.2461807 C210.973706,101.832061 193.842921,113.059831 190.551915,131.413427 C187.706798,147.285021 189.898577,165.289891 189.749788,181.397934 C189.575724,200.23442 189.322973,219.069954 189.049716,237.905489 C188.461236,278.448202 187.753057,318.988537 187.202727,359.531726 C186.77019,391.419543 184.392901,424.245068 187.024848,456.0639 C189.687793,488.25715 201.244229,519.448939 212.636139,549.417092 C224.576947,580.830107 237.858289,611.836829 247.535785,644.054342 C256.936209,675.347943 258.116984,705.116755 258.116984,737.4965 L258.116984,930.165497" id="Stroke-79" stroke="#6EE0FF"></path>
                        <path d="M422.862895,4.95996223 C416.609457,27.8260755 395.697424,39.3806871 375.037666,47.9984758 C351.036827,58.0102205 325.629644,64.454294 300.661676,71.542537 C277.451518,78.1317152 253.776394,84.6576182 232.038868,95.3040174 C216.251001,103.037381 198.815484,114.298929 194.20302,132.397998 C190.286335,147.765769 192.216303,166.164563 191.850529,181.950996 C191.416084,200.720877 191.077016,219.493136 190.788022,238.265396 C190.163775,278.822382 189.769388,319.383174 189.559081,359.944918 C189.3936,391.990684 187.433112,424.840948 189.923423,456.814876 C192.430426,489.009077 204.168556,520.172322 215.747883,550.035333 C227.873724,581.307525 241.392079,612.152967 251.139201,644.284369 C260.616881,675.526112 261.643622,705.463342 261.666512,737.811211 C261.712771,801.97363 260.885369,866.133196 261.248281,930.296091" id="Stroke-81" stroke="#6EE0FF"></path>
                        <path d="M417.466235,5.99857846 C410.971492,28.0349787 391.982273,40.1828541 372.039278,49.4586091 C349.787189,59.8090899 326.054361,66.7936188 302.74501,74.3114667 C280.668893,81.4315851 258.252755,88.5345764 237.604918,99.2394932 C221.758394,107.455271 204.469759,119.003222 198.21203,136.588953 C192.994394,151.250707 194.379278,169.994421 193.678729,185.401204 C192.831775,204.032641 192.306244,222.67835 191.923302,241.324535 C191.090178,281.839179 190.946158,322.367144 191.062996,362.888925 C191.155989,395.065999 189.639484,427.94576 192.04634,460.047189 C194.44795,492.085343 206.647231,522.96599 218.731106,552.413194 C231.347189,583.1573 245.452116,613.426129 255.49777,645.150286 C265.344562,676.245498 266.212022,706.236488 266.140012,738.532024 C265.997422,802.503667 263.758908,866.452473 264.383632,930.428398" id="Stroke-83" stroke="#0067A5"></path>
                        <path d="M406.592798,7.7359806 C394.419745,50.5394722 338.247062,65.1027453 301.490889,79.1260388 C267.439628,92.1169484 220.341177,106.740642 202.827451,142.032946 C195.589239,156.61858 196.518694,177.22677 195.416605,193.177338 C194.12853,211.815911 193.390783,230.492068 192.885759,249.166798 C191.820867,288.586259 191.836127,328.032838 192.166611,367.462766 C192.438914,399.861065 191.098381,432.972042 193.634473,465.281375 C196.061835,496.207219 208.379385,525.839015 220.736517,553.95078 C234.429414,585.101655 249.964053,615.623584 260.744115,647.960511 C270.774031,678.047603 271.631,707.158449 271.364896,738.53388 C270.820767,802.564516 266.876423,866.515701 267.524991,930.563464" id="Stroke-85" stroke="#0067A5"></path>
                        <path d="M391.42088,10.0255416 C381.073356,51.5944543 333.397393,69.0503053 298.440997,85.3681552 C265.266257,100.854389 224.489915,117.923929 206.378171,151.99783 C199.140913,165.611975 198.909145,184.61783 197.403132,199.736782 C195.563773,218.197423 194.548955,236.734185 193.85842,255.269519 C192.342869,295.917374 192.487366,336.617562 192.999544,377.283971 C193.393454,408.58899 191.936083,440.833145 194.733033,472.024459 C197.488495,502.760002 210.730731,531.900345 223.933863,559.387447 C238.539524,589.79472 255.094704,619.504539 266.472784,651.340498 C276.848445,680.370467 277.722581,708.315242 277.190851,738.789597 C276.074455,802.806912 270.185837,866.640586 270.670356,930.700243" id="Stroke-87" stroke="#0067A5"></path>
                        <path d="M373.125391,12.7202538 C365.240041,52.9294646 326.712229,73.5034003 294.176041,92.6829041 C263.15779,110.967041 227.520398,130.647513 209.823547,163.516331 C202.400302,177.305079 200.997296,195.668666 199.071144,210.963647 C196.906071,228.159261 195.639455,245.45859 194.782487,262.765054 C192.770018,303.418143 192.968403,344.163527 193.568806,384.849918 C194.031388,416.212503 192.350356,448.67598 195.567445,479.881091 C198.706324,510.333561 213.002961,538.865416 227.150332,565.557058 C242.347335,594.227357 259.400863,622.162143 271.465186,652.366269 C283.284864,681.959053 284.368355,710.475684 283.381673,741.930089 C281.405447,804.980674 273.636459,867.700135 273.818153,930.838259" id="Stroke-89" stroke="#0067A5"></path>
                        <path d="M352.879047,15.6713968 C347.856458,53.2449364 320.088678,76.8660696 291.63084,98.8786822 C263.465335,120.664836 233.259225,142.312071 214.738787,173.481976 C197.893182,201.832569 197.370512,242.812499 195.47965,274.792136 C193.149096,314.213976 193.353682,353.760938 193.989851,393.229878 C194.492968,424.456397 192.360323,457.398958 196.149201,488.420428 C199.712034,517.594549 214.339155,544.547381 228.905234,569.5815 C245.576298,598.232293 264.495414,625.898754 277.705223,656.406411 C289.991298,684.780316 291.244084,712.03525 289.916427,742.487244 C287.170503,805.454572 277.163954,867.86289 276.965569,930.975799" id="Stroke-91" stroke="#0067A5"></path>
                        <path d="M331.850796,18.729394 C326.865882,91.3659249 252.673017,128.560765 218.084779,186.375689 C201.241082,214.531223 198.726449,251.58762 196.372051,283.539662 C193.471139,322.906791 193.684785,362.460414 194.35386,401.904138 C194.670037,420.518923 195.154078,439.130378 195.488377,457.745163 C195.723006,470.827893 194.892743,484.252214 196.716365,497.238842 C200.774208,526.136551 216.606902,552.303438 232.127712,576.427442 C249.918987,604.081533 270.079444,630.629022 284.129052,660.491083 C297.334092,688.557651 298.275946,715.384884 296.431342,745.789778 C292.672031,807.758501 280.715008,868.908928 280.112221,931.113149" id="Stroke-93" stroke="#0067A5"></path>
                        <path d="M311.207204,21.7439549 C310.70981,92.5849942 259.875892,140.867257 223.084907,196.450899 C204.617404,224.35143 200.172327,259.492921 197.284291,292.10959 C193.803483,331.425813 194.02619,371.019399 194.741045,410.446948 C195.079636,429.111687 195.610413,447.772145 195.939466,466.436884 C196.169326,479.484408 195.172629,493.004355 197.264262,505.920572 C201.896279,534.524741 218.91261,559.974193 235.392442,583.130991 C253.802241,608.99863 274.417173,633.725889 289.255078,661.925192 C303.834033,689.633519 305.297126,715.735704 303.039537,746.369435 C298.477146,808.27631 284.250134,869.015687 283.25773,931.24988" id="Stroke-95" stroke="#0067A5"></path>
                        <path d="M292.111639,24.5634095 C293.666295,58.3090409 290.200748,91.0917484 277.182171,122.503812 C264.599948,152.863034 245.870634,180.423877 227.148949,207.275848 C207.69858,235.173049 201.499984,267.985253 198.133152,301.319834 C194.189285,340.364878 194.465404,379.770066 195.2537,418.958787 C195.627581,437.560251 196.212246,456.157909 196.551314,474.7608 C196.787373,487.716504 195.693391,501.196963 197.995808,513.994717 C203.072285,542.210197 221.080545,566.775699 238.328167,588.894405 C257.67076,613.700163 279.285249,637.243273 294.967247,664.659011 C310.504271,691.820222 312.038898,717.392418 309.371661,747.908639 C303.994267,809.43729 287.703283,869.418317 286.399947,931.386088" id="Stroke-97" stroke="#0067A5"></path>
                        <path d="M275.724657,27.0350887 C278.632246,60.8611224 281.841705,95.3865129 274.572018,128.900453 C267.537438,161.329676 250.923123,190.42958 231.180898,216.799138 C210.507786,244.410887 202.842282,275.346245 199.03099,309.31215 C194.675568,348.125978 195.054695,387.386062 195.965075,426.372587 C196.398089,444.932661 197.062395,463.487025 197.438183,482.048526 C197.699041,494.937625 196.535433,508.403336 199.006192,521.111648 C204.434136,549.027879 223.354205,572.799826 241.284732,593.977492 C261.46951,617.817947 283.996287,640.274913 300.429384,667.006995 C316.809069,693.652014 318.350372,718.882619 315.333099,749.285135 C309.257541,810.495983 291.03039,869.749584 289.541545,931.520869" id="Stroke-99" stroke="#0067A5"></path>
                        <path d="M263.204048,29.0054671 C266.907563,63.1611975 275.586932,97.5567075 273.896363,132.084953 C272.166689,167.419123 256.669247,198.799787 234.165361,225.661273 C211.765436,252.400491 203.692193,283.580387 199.735926,317.808908 C195.2403,356.702186 195.895067,396.088344 197.04723,435.153369 C197.563223,452.662029 198.282848,470.165455 198.715862,487.676969 C199.037285,500.654557 197.876062,514.12455 200.461751,526.912789 C206.112878,554.86708 226.046336,578.038627 244.70984,598.570221 C265.121616,621.024332 287.750924,642.054039 304.626574,667.439264 C313.026009,680.073359 319.907031,694.053835 322.066859,709.191342 C323.937692,722.307374 322.262383,736.269296 320.877499,749.383901 C314.39754,810.726533 294.194163,869.64901 292.681473,931.654841" id="Stroke-101" stroke="#0067A5"></path>
                        <path d="M255.704692,30.3198297 C259.574641,65.8547679 272.764897,99.9205811 275.18749,135.5854 C277.688293,172.39488 263.082156,204.365477 237.961583,230.875858 C213.751867,256.425218 204.977121,287.346304 200.790994,321.787011 C196.072661,360.597984 196.998301,399.9732 198.438504,438.958298 C199.085641,456.492648 199.953101,474.018435 200.507246,491.556116 C200.917847,504.546074 199.77713,518.087905 202.379986,530.884232 C208.055435,558.78619 228.603602,581.490547 247.732549,601.419362 C268.682733,623.244528 291.936764,643.545382 309.228737,668.555713 C327.117775,694.428585 328.999576,719.761953 325.628452,750.227744 C318.855683,811.432883 297.120064,869.810147 295.820543,931.789337" id="Stroke-103" stroke="#0067A5"></path>
                        <path d="M254.377416,30.8225578 C257.389444,67.6058718 273.963699,100.911908 279.398796,137.131454 C285.139579,175.391981 269.762313,207.396357 241.635436,233.0775 C215.457601,256.979328 206.249363,288.555526 201.974059,322.98529 C197.152717,361.817196 198.458438,401.270435 200.297796,440.257437 C201.128059,457.861247 202.195812,475.453639 202.93022,493.061731 C203.474827,506.123052 202.410889,519.79524 204.925044,532.671493 C210.391616,560.673835 231.316525,583.157919 250.782155,602.734201 C272.074745,624.14784 295.780866,643.95058 313.251672,668.792496 C331.310005,694.469833 332.899474,720.35555 329.532165,750.698121 C322.741751,811.881851 299.770991,869.877086 298.961235,931.923832" id="Stroke-105" stroke="#0067A5"></path>
                    </g>
                </g>
            </g>
        </g>
    </g>
</svg>